<svg version="1.2" xmlns="http://www.w3.org/2000/svg" viewBox="0 0 24 24" width="24" height="24">
	<title>icon-19-svg</title>
	<style>
		.s0 { fill: #ffffff } 
		.s1 { opacity: .4;fill: #ffffff } 
		.s2 { fill: #ff5364 } 
	</style>
	<path id="Layer" class="s0" d="m20 6.8c1.5 0 2.8-1.3 2.8-2.8 0-1.5-1.3-2.8-2.8-2.8-1.5 0-2.8 1.3-2.8 2.8 0 1.5 1.3 2.8 2.8 2.8z"/>
	<path id="Layer" class="s1" d="m20 8c-2.2 0-4-1.8-4-4 0-0.7 0.2-1.4 0.6-2h-9.6c-2.8 0-5 2.2-5 5v6 1c0 2.7 2.2 4.9 5 4.9h1.5c0.3 0 0.6 0.2 0.8 0.4l1.5 2c0.7 0.9 1.7 0.9 2.4 0l1.5-2c0.2-0.2 0.5-0.4 0.8-0.4h1.5c2.8 0 5-2.2 5-4.9v-6.6c-0.6 0.4-1.3 0.6-2 0.6z"/>
	<path id="Layer" class="s2" d="m12 12c-0.6 0-1-0.4-1-1 0-0.6 0.4-1 1-1 0.6 0 1 0.4 1 1 0 0.6-0.4 1-1 1z"/>
	<path id="Layer" class="s2" d="m16 12c-0.6 0-1-0.4-1-1 0-0.6 0.4-1 1-1 0.6 0 1 0.4 1 1 0 0.6-0.4 1-1 1z"/>
	<path id="Layer" class="s2" d="m8 12c-0.6 0-1-0.4-1-1 0-0.6 0.5-1 1-1 0.6 0 1 0.4 1 1 0 0.6-0.4 1-1 1z"/>
</svg>