<svg version="1.2" xmlns="http://www.w3.org/2000/svg" viewBox="0 0 24 24" width="24" height="24">
	<title>icon-21-svg</title>
	<style>
		.s0 { fill: #ffffff } 
		.s1 { opacity: .4;fill: #ffffff } 
	</style>
	<path id="Layer" class="s0" d="m17.6 10.8c-0.4 0-0.8-0.4-0.8-0.8 0.1-0.4-0.3-1.2-0.9-1.8-0.7-0.7-1.3-1.1-1.9-1.1-0.4 0-0.8-0.3-0.8-0.7 0-0.4 0.4-0.8 0.8-0.8 1 0 2.1 0.5 3 1.5 0.8 0.9 1.4 2.1 1.4 2.9 0 0.4-0.4 0.8-0.8 0.8z"/>
	<path id="Layer" class="s0" d="m21.2 10.8c-0.4-0.1-0.7-0.4-0.7-0.8 0-3.6-2.9-6.5-6.5-6.5-0.4 0-0.7-0.3-0.7-0.7 0-0.4 0.3-0.8 0.7-0.8 4.4 0 8 3.6 8 8 0 0.4-0.4 0.7-0.8 0.7z"/>
	<path id="Layer" class="s1" d="m11.8 14.2l-3.3 3.3q-0.5-0.5-1-1-1.6-1.6-2.8-3.3-1.3-1.7-2-3.4-0.7-1.7-0.7-3.3 0-1 0.4-1.9 0.3-0.9 1.1-1.7 1-0.9 2.1-0.9 0.4 0 0.8 0.2 0.4 0.2 0.7 0.5l2.3 3.3q0.3 0.4 0.4 0.7 0.1 0.3 0.1 0.6 0 0.4-0.2 0.7-0.2 0.4-0.5 0.7l-0.8 0.8q-0.2 0.2-0.2 0.4 0 0.1 0.1 0.3 0 0.1 0 0.2 0.3 0.5 1 1.2 0.7 0.8 1.4 1.6 0.6 0.6 1.1 1z"/>
	<path id="Layer" class="s0" d="m22 18.3q0 0.5-0.2 0.9 0 0.1-0.1 0.2-0.2 0.6-0.7 1-0.7 0.8-1.6 1.2 0 0 0 0-0.9 0.4-1.9 0.4-1.6 0-3.3-0.7-1.7-0.8-3.4-2-0.6-0.4-1.2-0.9l3.3-3.3q0.4 0.3 0.7 0.5 0.1 0 0.2 0.1 0.1 0 0.2 0 0.3 0 0.5-0.1l0.7-0.8q0.4-0.4 0.7-0.6 0.4-0.2 0.7-0.2 0.3 0 0.7 0.2 0.3 0.1 0.7 0.4l3.3 2.3q0.3 0.3 0.5 0.6 0.2 0.4 0.2 0.8z"/>
</svg>