<svg version="1.2" xmlns="http://www.w3.org/2000/svg" viewBox="0 0 24 24" width="24" height="24"><style>.a{fill:#fff}</style><path fill-rule="evenodd" class="a" d="m12 23.7c-5.9 0-12-1.2-12-3.7 0-2.1 4.7-3 6.7-3.3 0.3 0 0.6 0.2 0.6 0.5q0 0.2-0.1 0.4-0.2 0.2-0.4 0.2c-4.1 0.6-5.7 1.7-5.7 2.2 0 1.1 4.3 2.6 10.9 2.6 6.6 0 10.8-1.5 10.8-2.6 0-0.5-1.5-1.6-5.7-2.2q-0.2 0-0.4-0.2-0.1-0.2-0.1-0.4c0-0.3 0.3-0.5 0.6-0.5 2.1 0.3 6.7 1.2 6.7 3.3 0.1 2.4-6 3.7-11.9 3.7zm-0.4-3.9c-0.3-0.3-6.8-6.4-6.8-12.5 0-3.9 3.2-7.1 7.2-7.1 3.9 0 7.1 3.2 7.1 7.2 0 5.8-6.5 12.1-6.7 12.3l-0.4 0.4zm0.4-18.4c-3.3 0-6 2.7-6 6 0 4.7 4.5 9.8 6 11.2 1.4-1.5 6-6.6 6-11.2 0-3.3-2.7-6-6-6zm0 9.2c-1.9 0-3.4-1.5-3.4-3.4 0-1.9 1.5-3.4 3.4-3.4 1.9 0 3.4 1.5 3.4 3.4 0 1.9-1.5 3.4-3.4 3.4zm0-5.7c-1.3 0-2.3 1-2.3 2.3 0 1.3 1 2.3 2.3 2.3 1.2 0 2.2-1 2.2-2.3 0-1.3-1-2.3-2.2-2.3z"/></svg>