<svg version="1.2" xmlns="http://www.w3.org/2000/svg" viewBox="0 0 100 100" width="100" height="100">
	<title>telephone-svg</title>
	<style>
		.s0 { fill: #3553a3 } 
		.s1 { fill: #d8dfe7 } 
		.s2 { fill: #f1c96c } 
	</style>
	<path id="Layer" fill-rule="evenodd" class="s0" d="m82 73v5.5c0 0.5-0.4 0.9-1 0.9h-50.8c-0.6 0-1-0.4-1-0.9v-5.5c0-0.5 0.4-1 1-1h2.6l0.8-4.7c-4.1-0.8-5.6-4.9-6.1-6.7-0.1-0.6-0.5-1.5-1.3-2.1-0.7-0.6-1.7-0.9-2.7-0.9-1.6 0.1-3.2-0.5-4.2-1.7-1.1-1.2-1.5-2.7-1.2-4.3 0.8-4.6 3.5-7.5 4.7-8.6l-0.4-1.3c-0.9-2.4-0.1-5.1 2-6.7 5.8-4.6 12.1-8.2 18.8-10.6 6.7-2.3 13.8-3.6 21.3-3.8 2.5-0.1 4.9 1.5 5.7 4l1.8 4.7q0 0 0 0 0 0 0 0l0.9 2.6c0.3 0.6 0.3 1.3 0 1.8-0.3 0.6-0.8 1-1.4 1.3l-10.1 3.5c-1.2 0.4-2.6-0.2-3-1.5l-1-2.5-0.3-0.8c-0.2-0.5-0.7-0.9-1.3-0.9-3.1 0.1-6.2 0.6-9 1.6-2.8 1.1-5.5 2.6-8 4.6-0.4 0.3-0.6 0.9-0.4 1.5l0.3 0.8 0.8 2.5c0.5 1.3-0.2 2.6-1.4 3.1l-10 3.7q-0.4 0.1-0.8 0.1-0.6 0-1.1-0.2c-0.5-0.3-1-0.8-1.2-1.4l-0.9-2.5q0-0.1 0-0.1 0 0 0 0l-0.5-1.5c-1.2 1.2-3 3.6-3.6 7-0.2 0.9 0.1 1.8 0.7 2.6 0.7 0.7 1.7 1.2 2.7 1.1q2.3-0.1 4 1.2c1 0.8 1.7 1.9 2 3.2 0.5 1.8 1.6 4.6 4.5 5.2l1.8-10.6c0.3-1.8 1.9-3.2 3.8-3.2h3.5v-3.9c0-0.6 0.5-1 1-1h6.9c0.5 0 0.9 0.4 0.9 1v3.9h7.6v-3.9c0-0.6 0.4-1 0.9-1h6.9c0.5 0 1 0.4 1 1v3.9h3.5c1.9 0 3.5 1.4 3.8 3.2l2.9 17.3h2.6c0.6 0 1 0.5 1 1zm-22.4-38.2l0.6 1.6c0.1 0.2 0.3 0.4 0.6 0.3l10.1-3.6c0.1 0 0.2-0.1 0.2-0.2 0 0 0.1-0.2 0-0.3l-0.6-1.7zm-35.4 6.3l1.4 3.8 10.9-3.9c-0.4-1.3 0-2.7 1.1-3.6 2.7-2.1 5.5-3.7 8.5-4.8q0 0 0 0c3-1.1 6.3-1.7 9.7-1.7 1.4-0.1 2.6 0.8 3.1 2.1l10.9-4-1.4-3.8c-0.6-1.6-2.1-2.7-3.8-2.7h-0.1c-7.2 0.2-14.2 1.4-20.7 3.7-6.4 2.4-12.6 5.8-18.3 10.3-1.3 1.1-1.9 2.9-1.3 4.6zm13.5 3.3l-0.6-1.5-10.9 3.9 0.6 1.7c0.1 0.1 0.2 0.2 0.3 0.2 0 0.1 0.1 0.1 0.3 0l10-3.6c0.3-0.1 0.4-0.4 0.3-0.7zm23.6 7.1h4.9v-3h-4.9zm-16.3 0h4.9v-3h-4.9zm-10.2 20.6h41.6l-2.8-17c-0.2-0.9-1-1.6-1.9-1.6h-32.2c-0.9 0-1.7 0.7-1.9 1.6zm45.3 2h-48.9v3.5h48.9z"/>
	<path id="Layer" class="s1" d="m37.4 45.1l-10 3.7c-0.1 0-0.3 0-0.3-0.1-0.1 0-0.2-0.1-0.3-0.2l-0.6-1.7 10.9-3.9 0.6 1.6c0.1 0.2 0 0.5-0.3 0.6zm33.7-12.2c0 0.1-0.1 0.2-0.2 0.2l-10.1 3.6c-0.3 0.1-0.5-0.1-0.6-0.3l-0.6-1.6 10.9-3.9 0.6 1.7c0.1 0.1 0.1 0.2 0 0.3z"/>
	<path id="Layer" class="s2" d="m69.8 29.1l-10.9 3.9c-0.5-1.3-1.7-2.1-3.1-2.1-3.4 0.1-6.6 0.6-9.7 1.7q0 0 0 0c-3 1.1-5.8 2.7-8.5 4.9-1.1 0.8-1.5 2.2-1.1 3.5l-10.9 4-1.4-3.9c-0.5-1.7 0-3.5 1.4-4.6 5.7-4.5 11.8-7.9 18.2-10.3 6.5-2.3 13.5-3.5 20.7-3.7h0.1c1.7 0 3.2 1.1 3.8 2.7z"/>
	<path id="Layer" class="s1" d="m45 48.5h4.9v3h-4.9z"/>
	<path id="Layer" class="s1" d="m61.3 48.5h4.9v3h-4.9z"/>
	<path id="Layer" fill-rule="evenodd" class="s2" d="m76.4 72h-41.6l2.8-16.9c0.2-1 1-1.6 1.9-1.6h32.2c0.9 0 1.7 0.6 1.9 1.6zm-12.2-9.3c0-4.8-3.9-8.6-8.6-8.6-4.8 0-8.7 3.8-8.7 8.6 0 4.7 3.9 8.6 8.7 8.6 4.7 0 8.6-3.9 8.6-8.6z"/>
	<path id="Layer" class="s1" d="m31.1 74h49v3.5h-49z"/>
	<path id="Layer" fill-rule="evenodd" class="s0" d="m64.2 62.7c0 4.8-3.9 8.6-8.6 8.6-4.8 0-8.6-3.8-8.6-8.6 0-4.7 3.8-8.6 8.6-8.6 4.7 0 8.6 3.9 8.6 8.6zm-1.9 0c0-3.6-3-6.6-6.7-6.6-3.7 0-6.7 3-6.7 6.6 0 3.7 3 6.7 6.7 6.7 3.7 0 6.7-3 6.7-6.7z"/>
	<path id="Layer" fill-rule="evenodd" class="s1" d="m62.3 62.7c0 3.7-3 6.7-6.7 6.7-3.7 0-6.7-3-6.7-6.7 0-3.6 3-6.6 6.7-6.6 3.7 0 6.7 3 6.7 6.6zm-4.4-2.3q0.3 0.3 0.7 0.3 0.4 0 0.7-0.3l0.7-0.7c0.4-0.4 0.4-1 0-1.4-0.4-0.3-1-0.3-1.4 0l-0.7 0.8c-0.4 0.3-0.4 0.9 0 1.3zm-3.3-1.9c0 0.5 0.5 1 1 1 0.5 0 1-0.5 1-1v-1c0-0.5-0.5-1-1-1-0.5 0-1 0.5-1 1zm-3.4 1.2l0.7 0.7q0.3 0.3 0.7 0.3 0.4 0 0.7-0.3c0.4-0.3 0.4-1 0-1.3l-0.7-0.8c-0.4-0.3-1-0.3-1.4 0-0.4 0.4-0.4 1 0 1.4zm0.2 4c0.5 0 0.9-0.4 0.9-1 0-0.5-0.4-0.9-0.9-0.9h-1c-0.6 0-1 0.4-1 0.9 0 0.6 0.4 1 1 1zm1.9 1.3c-0.4-0.3-1-0.3-1.4 0l-0.7 0.7c-0.4 0.4-0.4 1 0 1.4 0.2 0.2 0.5 0.3 0.7 0.3q0.4 0 0.7-0.3l0.7-0.7c0.4-0.4 0.4-1 0-1.4zm3.3 2c0-0.6-0.5-1-1-1-0.5 0-1 0.4-1 1v1c0 0.5 0.5 0.9 1 0.9 0.5 0 1-0.4 1-0.9zm1.5-4.3c0-1.3-1.1-2.5-2.5-2.5-1.4 0-2.5 1.2-2.5 2.5 0 1.4 1.1 2.5 2.5 2.5 1.4 0 2.5-1.1 2.5-2.5zm1.9 3l-0.7-0.6c-0.4-0.4-1-0.4-1.4 0-0.4 0.3-0.4 0.9 0 1.3l0.7 0.7q0.3 0.3 0.7 0.3 0.4 0 0.7-0.3c0.4-0.4 0.4-1 0-1.4zm1.8-3c0-0.5-0.4-0.9-1-0.9h-1c-0.5 0-0.9 0.4-0.9 0.9 0 0.6 0.4 1 0.9 1h1c0.6 0 1-0.4 1-1z"/>
	<path id="Layer" fill-rule="evenodd" class="s0" d="m56.6 57.5v1c0 0.5-0.5 1-1 1-0.5 0-1-0.5-1-1v-1c0-0.5 0.5-1 1-1 0.5 0 1 0.5 1 1zm-3.3 2.9q-0.3 0.3-0.7 0.3-0.4 0-0.7-0.3l-0.7-0.7c-0.4-0.4-0.4-1 0-1.3 0.4-0.4 1-0.4 1.4 0l0.7 0.7c0.4 0.3 0.4 0.9 0 1.3zm-1 2.3c0 0.6-0.4 1-0.9 1h-1c-0.6 0-1-0.4-1-1 0-0.5 0.4-0.9 1-0.9h1c0.5 0 0.9 0.4 0.9 0.9zm1 3.7l-0.7 0.7q-0.3 0.3-0.7 0.3c-0.3 0-0.5-0.1-0.7-0.3-0.4-0.3-0.4-1 0-1.3l0.7-0.8c0.4-0.3 1-0.3 1.4 0 0.4 0.4 0.4 1 0 1.4zm3.3 0.6v1c0 0.5-0.5 0.9-1 0.9-0.5 0-1-0.4-1-0.9v-1c0-0.6 0.5-1 1-1 0.5 0 1 0.4 1 1zm3.4 0.1q-0.3 0.3-0.7 0.3-0.4 0-0.7-0.3l-0.7-0.7c-0.4-0.4-0.4-1 0-1.3 0.4-0.4 1-0.4 1.4 0l0.7 0.7c0.4 0.3 0.4 1 0 1.3zm1.8-4.4c0 0.6-0.4 1-1 1h-1c-0.5 0-0.9-0.4-0.9-1 0-0.5 0.4-0.9 0.9-0.9h1c0.6 0 1 0.4 1 0.9zm-1.8-3l-0.7 0.7q-0.3 0.3-0.7 0.3-0.4 0-0.7-0.3c-0.4-0.4-0.4-1 0-1.3l0.7-0.7c0.4-0.4 1-0.4 1.4 0 0.4 0.3 0.4 0.9 0 1.3zm-1.9 3c0 1.4-1.1 2.5-2.5 2.5-1.4 0-2.5-1.1-2.5-2.5 0-1.3 1.1-2.5 2.5-2.5 1.4 0 2.5 1.2 2.5 2.5zm-1.9 0c0-0.3-0.3-0.5-0.6-0.5-0.3 0-0.6 0.2-0.6 0.5 0 0.3 0.3 0.6 0.6 0.6 0.3 0 0.6-0.3 0.6-0.6z"/>
	<path id="Layer" class="s2" d="m56.2 62.7c0 0.4-0.3 0.6-0.6 0.6-0.3 0-0.6-0.2-0.6-0.6 0-0.3 0.3-0.5 0.6-0.5 0.3 0 0.6 0.2 0.6 0.5z"/>
	<path id="Layer" class="s0" d="m65.7 42.9c-0.5-0.3-1.1 0-1.3 0.5-0.2 0.5 0 1 0.5 1.2 1.3 0.6 2.6 0.8 3.9 0.8 3.8 0 7.4-2.2 9-5.9 0.2-0.5 0-1.1-0.5-1.3-0.5-0.2-1.1 0-1.3 0.5-1.7 4-6.3 5.9-10.3 4.2z"/>
	<path id="Layer" class="s0" d="m72.8 36.5c-0.5 1.2-1.4 2.1-2.6 2.6-1.3 0.5-2.6 0.4-3.8-0.1-0.5-0.2-1.1 0-1.3 0.5-0.2 0.5 0.1 1.1 0.5 1.3q1.4 0.6 2.7 0.6 1.3 0 2.6-0.5c1.7-0.7 3-2 3.7-3.7 0.2-0.5 0-1-0.5-1.2-0.5-0.3-1 0-1.3 0.5z"/>
</svg>