<svg version="1.2" xmlns="http://www.w3.org/2000/svg" viewBox="0 0 32 32" width="32" height="32"><style>.a{fill:#f66962}</style><path fill-rule="evenodd" class="a" d="m17.2 0c0.7 0 1.3 0.5 1.5 1.1l0.8 3.5q0.7 0.2 1.4 0.5l3-1.8c0.6-0.3 1.4-0.3 1.8 0.2l1.8 1.8c0.5 0.4 0.5 1.2 0.2 1.8l-1.8 3q0.3 0.7 0.5 1.4l3.5 0.8c0.6 0.2 1.1 0.8 1.1 1.5v2.4q0 0.5-0.2 0.8c0.7 0.2 1.2 0.8 1.2 1.5v12c0 0.8-0.7 1.5-1.5 1.5h-13c-0.8 0-1.5-0.7-1.5-1.5v-0.5h-1.2c-0.7 0-1.3-0.5-1.5-1.1l-0.8-3.5q-0.7-0.2-1.4-0.5l-3 1.8c-0.6 0.3-1.4 0.3-1.8-0.2l-1.8-1.8c-0.5-0.4-0.5-1.2-0.2-1.8l1.8-3q-0.3-0.7-0.5-1.4l-3.5-0.8c-0.6-0.2-1.1-0.8-1.1-1.5v-2.4c0-0.7 0.5-1.3 1.1-1.5l3.5-0.8q0.2-0.7 0.5-1.4l-1.8-3c-0.3-0.6-0.3-1.4 0.2-1.8l1.8-1.8c0.4-0.5 1.2-0.5 1.8-0.2l3 1.8q0.7-0.3 1.4-0.5l0.8-3.5c0.2-0.6 0.8-1.1 1.5-1.1zm-2.9 1.4l-0.9 3.4c-0.1 0.4-0.3 0.6-0.7 0.7q-0.6 0.2-1.2 0.5c-0.3 0.2-0.6 0.2-0.9 0l-3.1-1.8c-0.2-0.2-0.4-0.1-0.6 0l-1.7 1.8c-0.2 0.1-0.2 0.4-0.1 0.6l1.9 3c0.1 0.3 0.1 0.7 0 1q-0.3 0.6-0.5 1.2c-0.1 0.3-0.4 0.6-0.7 0.6l-3.5 0.9c-0.2 0.1-0.3 0.3-0.3 0.5v2.4c0 0.2 0.1 0.4 0.3 0.5l3.5 0.9c0.3 0 0.6 0.3 0.7 0.6q0.2 0.6 0.5 1.2c0.1 0.3 0.1 0.7 0 1l-1.9 3c-0.1 0.2-0.1 0.5 0.1 0.6l1.7 1.8c0.2 0.1 0.4 0.2 0.6 0l3.1-1.8c0.3-0.2 0.6-0.2 0.9 0q0.6 0.3 1.2 0.5c0.4 0.1 0.6 0.3 0.7 0.7l0.9 3.4c0 0.2 0.2 0.4 0.4 0.4h1.3v-10.5c0-0.8 0.6-1.5 1.5-1.5h4.1q0.4-1 0.4-2c0-2.8-1.9-5.2-4.6-5.8-0.3-0.1-0.4-0.4-0.4-0.6 0.1-0.3 0.4-0.5 0.6-0.4 3.2 0.8 5.4 3.6 5.4 6.8q0 1-0.3 2h5.7q0.1 0 0.1 0l1.1-0.3c0.2-0.1 0.4-0.3 0.4-0.5v-2.4c0-0.2-0.2-0.4-0.4-0.5l-3.5-0.9c-0.3 0-0.6-0.3-0.7-0.6q-0.2-0.6-0.5-1.2c-0.1-0.3-0.1-0.7 0.1-1l1.8-3c0.1-0.2 0.1-0.5-0.1-0.6l-1.7-1.8c-0.2-0.1-0.4-0.2-0.6 0l-3.1 1.8c-0.3 0.2-0.6 0.2-0.9 0q-0.6-0.3-1.2-0.5c-0.3-0.1-0.6-0.3-0.7-0.7l-0.8-3.4c-0.1-0.2-0.3-0.4-0.5-0.4h-2.5c-0.2 0-0.4 0.2-0.4 0.4zm1.3 7.1c0 0.3-0.2 0.5-0.4 0.6q-0.6 0-1.1 0.2-0.1 0-0.2 0c-0.2 0-0.4-0.1-0.4-0.3-0.1-0.3 0-0.6 0.3-0.7q0.6-0.2 1.2-0.2c0.3-0.1 0.5 0.1 0.6 0.4zm-3.9 1.6l0.7 0.7c0.2 0.2 0.2 0.5 0 0.7q-0.1 0.1-0.3 0.1-0.2 0-0.4-0.1l-0.7-0.7c-0.2-0.2-0.2-0.6 0-0.7q0.2-0.2 0.4-0.2 0.2 0 0.3 0.2zm8.3 4.9q0 0.2-0.1 0.4c0 0.3-0.2 0.5-0.5 0.4-0.3 0-0.5-0.2-0.5-0.5q0.1-0.2 0.1-0.3c0-1.7-1.4-3-3-3-1.7 0-3 1.3-3 3 0 1.1 0.6 2.2 1.6 2.7 0.3 0.1 0.4 0.4 0.2 0.7 0 0.1-0.2 0.2-0.4 0.2q-0.1 0-0.2 0c-1.4-0.7-2.2-2.1-2.2-3.6 0-2.2 1.8-4 4-4 2.2 0 4 1.8 4 4zm-9.8-3l0.9 0.4c0.2 0.1 0.4 0.4 0.3 0.6-0.1 0.2-0.3 0.4-0.5 0.4q-0.1 0-0.2-0.1l-0.9-0.4c-0.3-0.1-0.4-0.4-0.3-0.6 0.1-0.2 0.3-0.3 0.5-0.3q0.1 0 0.2 0zm6.1 2.1q0.2 0.1 0.4 0.2 0.1 0.1 0.2 0.3 0.1 0.2 0.1 0.4 0 0.2-0.1 0.4-0.1 0.2-0.2 0.3-0.2 0.1-0.4 0.2-0.1 0.1-0.3 0.1-0.2 0-0.4-0.1-0.2-0.1-0.3-0.2-0.2-0.1-0.3-0.3 0-0.2 0-0.4 0-0.2 0-0.4 0.1-0.2 0.3-0.3 0.1-0.1 0.3-0.2 0.2-0.1 0.4-0.1 0.2 0 0.3 0.1zm-5.8 0.4c0.2 0 0.5 0.2 0.5 0.5 0 0.3-0.3 0.5-0.5 0.5h-1c-0.3 0-0.5-0.2-0.5-0.5 0-0.3 0.2-0.5 0.5-0.5zm0.8 2.4c0.1 0.2 0 0.5-0.3 0.6l-0.9 0.4q-0.1 0-0.2 0c-0.2 0-0.4-0.1-0.4-0.3-0.1-0.2 0-0.5 0.2-0.6l1-0.4q0.1 0 0.2 0c0.2 0 0.3 0.1 0.4 0.3zm5.7 1.6v0.5h14v-0.5c0-0.3-0.3-0.5-0.5-0.5h-8.5q0 0 0 0 0 0 0 0h-4.5c-0.3 0-0.5 0.2-0.5 0.5zm-4.6 0c0.2 0.2 0.2 0.5 0 0.7l-0.7 0.7q-0.1 0.2-0.3 0.2-0.2 0-0.4-0.2c-0.2-0.1-0.2-0.5 0-0.7l0.7-0.7q0.2-0.1 0.4-0.1 0.2 0 0.3 0.1zm1.6 1.1c0.3 0.1 0.4 0.4 0.3 0.7l-0.4 0.9c-0.1 0.2-0.3 0.3-0.5 0.3q-0.1 0-0.2-0.1c-0.2-0.1-0.3-0.4-0.2-0.6l0.4-0.9c0-0.2 0.2-0.3 0.4-0.3q0.1 0 0.2 0zm3 10.9c0 0.3 0.2 0.5 0.5 0.5h13c0.2 0 0.5-0.2 0.5-0.5v-10.5h-14zm5.8-8.4c0.2 0.2 0.2 0.6 0 0.8l-2 2q-0.1 0.1-0.3 0.1-0.2 0-0.4-0.1l-1-1c-0.2-0.2-0.2-0.6 0-0.8 0.2-0.1 0.5-0.1 0.7 0l0.7 0.7 1.6-1.7q0.2-0.1 0.4-0.1 0.2 0 0.3 0.1zm5.7 0.9c0.2 0 0.5 0.2 0.5 0.5 0 0.3-0.3 0.5-0.5 0.5h-4c-0.3 0-0.5-0.2-0.5-0.5 0-0.3 0.2-0.5 0.5-0.5zm-5.7 3.1c0.2 0.2 0.2 0.6 0 0.8l-2 2q-0.1 0.1-0.3 0.1-0.2 0-0.4-0.1l-1-1c-0.2-0.2-0.2-0.6 0-0.8 0.2-0.1 0.5-0.1 0.7 0l0.7 0.7 1.6-1.7q0.2-0.1 0.4-0.1 0.2 0 0.3 0.1zm3.7 0.9c0.2 0 0.5 0.2 0.5 0.5 0 0.3-0.3 0.5-0.5 0.5h-2c-0.3 0-0.5-0.2-0.5-0.5 0-0.3 0.2-0.5 0.5-0.5z"/></svg>